<?xml version="1.0" standalone="no"?><!DOCTYPE svg PUBLIC "-//W3C//DTD SVG 1.1//EN" "http://www.w3.org/Graphics/SVG/1.1/DTD/svg11.dtd"><svg t="1774338073311" class="icon" viewBox="0 0 1024 1024" version="1.1" xmlns="http://www.w3.org/2000/svg" p-id="6401" xmlns:xlink="http://www.w3.org/1999/xlink" width="128" height="128"><path d="M896 493.226667a175.36 175.36 0 0 0-6.4-46.933334l-61.44-213.333333A85.333333 85.333333 0 0 0 746.24 170.666667h-469.333333a85.333333 85.333333 0 0 0-81.066667 61.866666l-61.44 213.333334A175.36 175.36 0 0 0 128 493.226667V810.666667a42.666667 42.666667 0 0 0 42.666667 42.666666h42.666666a42.666667 42.666667 0 0 0 42.666667-42.666666v-42.666667h512v42.666667a42.666667 42.666667 0 0 0 42.666667 42.666666h42.666666a42.666667 42.666667 0 0 0 42.666667-42.666666zM267.52 253.013333a10.666667 10.666667 0 0 1 10.24-7.68h469.333333a10.666667 10.666667 0 0 1 10.24 7.68L805.973333 426.666667H218.026667zM341.333333 597.333333a42.666667 42.666667 0 0 1-42.666666 42.666667H256a42.666667 42.666667 0 0 1-42.666667-42.666667v-42.666666a42.666667 42.666667 0 0 1 42.666667-42.666667h42.666667a42.666667 42.666667 0 0 1 42.666666 42.666667z m469.333334 0a42.666667 42.666667 0 0 1-42.666667 42.666667h-42.666667a42.666667 42.666667 0 0 1-42.666666-42.666667v-42.666666a42.666667 42.666667 0 0 1 42.666666-42.666667h42.666667a42.666667 42.666667 0 0 1 42.666667 42.666667z" p-id="6402"></path></svg>