<?xml version="1.0" standalone="no"?><!DOCTYPE svg PUBLIC "-//W3C//DTD SVG 1.1//EN" "http://www.w3.org/Graphics/SVG/1.1/DTD/svg11.dtd"><svg t="1774338048789" class="icon" viewBox="0 0 1024 1024" version="1.1" xmlns="http://www.w3.org/2000/svg" p-id="5131" xmlns:xlink="http://www.w3.org/1999/xlink" width="128" height="128"><path d="M512 174.933333c23.466667 0 42.666667 8.533333 59.733333 25.6s25.6 36.266667 25.6 59.733334v192l206.933334 185.6c6.4 4.266667 10.666667 12.8 14.933333 21.333333s6.4 17.066667 6.4 25.6v23.466667c0 8.533333-2.133333 12.8-6.4 14.933333s-10.666667 2.133333-17.066667-2.133333l-204.8-140.8v149.333333c38.4 36.266667 57.6 57.6 57.6 64v36.266667c0 8.533333-2.133333 12.8-6.4 17.066666-4.266667 2.133333-10.666667 2.133333-19.2 0l-117.333333-72.533333-117.333333 72.533333c-6.4 4.266667-12.8 4.266667-19.2 0s-6.4-8.533333-6.4-17.066666v-36.266667c0-8.533333 19.2-29.866667 57.6-64v-149.333333l-204.8 140.8c-6.4 4.266667-12.8 6.4-17.066667 2.133333-4.266667-2.133333-6.4-8.533333-6.4-14.933333V684.8c0-8.533333 2.133333-17.066667 6.4-25.6 4.266667-8.533333 8.533333-17.066667 14.933333-21.333333l206.933334-185.6v-192c0-23.466667 8.533333-42.666667 25.6-59.733334s36.266667-25.6 59.733333-25.6z" p-id="5132"></path></svg>