<?xml version="1.0" standalone="no"?><!DOCTYPE svg PUBLIC "-//W3C//DTD SVG 1.1//EN" "http://www.w3.org/Graphics/SVG/1.1/DTD/svg11.dtd"><svg t="1774338126222" class="icon" viewBox="0 0 1184 1024" version="1.1" xmlns="http://www.w3.org/2000/svg" p-id="10239" xmlns:xlink="http://www.w3.org/1999/xlink" width="148" height="128"><path d="M1034.815662 888.548233q10.847661-10.847661 25.727196-10.847661t25.727196 10.847661l73.149714 73.149714-51.422393 51.422393-47.422518-47.422518-47.422518 47.422518q-10.271679 10.847661-25.727196 10.847661t-25.727196-10.847661l-47.422518-47.422518-47.422518 47.422518q-10.847661 10.847661-25.727196 10.847661t-25.727196-10.847661l-47.422518-47.422518-47.422518 47.422518q-10.847661 10.847661-25.727196 10.847661t-25.727196-10.847661l-47.422518-47.422518-47.422518 47.422518q-10.847661 10.847661-25.727196 10.847661t-25.727196-10.847661l-47.422518-47.422518-47.422518 47.422518q-10.847661 10.847661-25.727196 10.847661t-25.727196-10.847661l-47.422518-47.422518-47.422518 47.422518q-10.847661 10.847661-25.727196 10.847661t-25.727196-10.847661l-47.422518-47.422518-47.422518 47.422518q-10.847661 10.847661-25.727196 10.847661t-25.727196-10.847661l-73.149714-73.149714 51.422393-51.422393 47.422518 47.422518 47.422518-47.422518q10.847661-10.847661 25.727196-10.847661t25.727196 10.847661l47.422518 47.422518 47.422518-47.422518q10.847661-10.847661 25.727196-10.847661t25.727196 10.847661l47.422518 47.422518 47.422518-47.422518q10.847661-10.847661 25.727196-10.847661t25.727196 10.847661l47.422518 47.422518 47.422518-47.422518q10.847661-10.847661 25.727196-10.847661t25.727196 10.847661l47.422518 47.422518 47.422518-47.422518q10.847661-10.847661 25.727196-10.847661t25.727196 10.847661l47.422518 47.422518 47.422518-47.422518q10.847661-10.847661 25.727196-10.847661t25.727196 10.847661l47.422518 47.422518zM135.419768 866.820912q-10.847661 10.847661-25.727196 10.847661t-25.727196-10.847661l-73.149714-73.149714 51.422393-51.422393 47.422518 46.846536 47.422518-46.846536q10.847661-10.847661 25.727196-10.847661t25.727196 10.847661l47.422518 46.846536 36.574857-36.574857 0-167.418768-119.99625-179.418393q-9.727696-14.847536-3.999875-32.286991t22.847286-23.135277l101.148839-33.150964 0-170.842661 73.149714 0 0-73.149714 146.267429 0 0-73.149714 146.267429 0 0 73.149714 146.267429 0 0 73.149714 73.149714 0 0 170.842661 101.148839 33.150964q17.151464 5.727821 22.847286 23.135277t-3.999875 32.286991l-119.99625 179.418393 0 167.418768 10.847661-10.271679q10.847661-10.847661 25.727196-10.847661t25.727196 10.847661l47.422518 46.846536 47.422518-46.846536q10.847661-10.847661 25.727196-10.847661t25.727196 10.847661l73.149714 73.149714-51.422393 51.422393-47.422518-47.422518-47.422518 47.422518q-10.271679 10.847661-25.727196 10.847661t-25.727196-10.847661l-47.422518-47.422518-47.422518 47.422518q-10.847661 10.847661-25.727196 10.847661t-25.727196-10.847661l-47.422518-47.422518-47.422518 47.422518q-10.847661 10.847661-25.727196 10.847661t-25.727196-10.847661l-47.422518-47.422518-47.422518 47.422518q-10.847661 10.847661-25.727196 10.847661t-25.727196-10.847661l-47.422518-47.422518-47.422518 47.422518q-10.847661 10.847661-25.727196 10.847661t-25.727196-10.847661l-47.422518-47.422518-47.422518 47.422518q-10.847661 10.847661-25.727196 10.847661t-25.727196-10.847661l-47.422518-47.422518zM365.716571 219.417143l0 73.149714 219.417143-73.149714 219.417143 73.149714 0-73.149714-73.149714 0 0-73.149714-292.566857 0 0 73.149714-73.149714 0z" p-id="10240"></path></svg>