<?xml version="1.0" standalone="no"?><!DOCTYPE svg PUBLIC "-//W3C//DTD SVG 1.1//EN" "http://www.w3.org/Graphics/SVG/1.1/DTD/svg11.dtd"><svg t="1774338091435" class="icon" viewBox="0 0 1747 1024" version="1.1" xmlns="http://www.w3.org/2000/svg" p-id="7869" xmlns:xlink="http://www.w3.org/1999/xlink" width="218.375" height="128"><path d="M1456.360107 436.906667h-93.14304l-48.032427-144.13824h359.58784a72.813227 72.813227 0 1 0 0-145.626454H1261.1584A288.058027 288.058027 0 0 0 1009.978027 0h-345.156267A288.085333 288.085333 0 0 0 391.5776 196.922027L311.596373 436.906667h-20.329813C130.402987 436.906667 0 567.296 0 728.173227c0 160.877227 130.389333 291.26656 291.26656 291.26656h1165.093547c160.863573 0 291.26656-130.389333 291.26656-291.26656C1747.626667 567.296 1617.237333 436.906667 1456.360107 436.906667zM529.722027 243.002027a142.445227 142.445227 0 0 1 135.099733-97.375574h345.156267c61.289813 0 115.684693 39.212373 135.113386 97.416534L1209.698987 436.906667H465.114453l64.607574-193.90464z m926.63808 339.531093c80.431787 0 145.626453 65.194667 145.626453 145.640107 0 80.44544-65.194667 145.640107-145.626453 145.640106H291.26656c-80.431787 0-145.626453-65.194667-145.626453-145.640106 0-80.44544 65.181013-145.640107 145.626453-145.640107h1165.093547zM436.906667 655.36a72.840533 72.840533 0 0 0-72.813227 72.813227A72.840533 72.840533 0 0 0 436.906667 800.986453a72.840533 72.840533 0 0 0 72.813226-72.813226A72.840533 72.840533 0 0 0 436.906667 655.36z m436.906666 0a72.840533 72.840533 0 0 0-72.813226 72.813227A72.840533 72.840533 0 0 0 873.813333 800.986453a72.840533 72.840533 0 0 0 72.813227-72.813226A72.840533 72.840533 0 0 0 873.813333 655.36z m436.906667 0a72.840533 72.840533 0 0 0-72.813227 72.813227A72.840533 72.840533 0 0 0 1310.72 800.986453a72.840533 72.840533 0 0 0 72.813227-72.813226A72.840533 72.840533 0 0 0 1310.72 655.36zM946.5856 218.453333a72.813227 72.813227 0 1 1 0 145.626454H777.243307a72.813227 72.813227 0 1 1 0-145.626454z" fill="#707070" p-id="7870"></path></svg>